<?xml version="1.0" standalone="no"?>
<!DOCTYPE svg PUBLIC "-//W3C//DTD SVG 20010904//EN"
 "http://www.w3.org/TR/2001/REC-SVG-20010904/DTD/svg10.dtd">
<svg version="1.0" xmlns="http://www.w3.org/2000/svg"
 width="512.000000pt" height="512.000000pt" viewBox="0 0 512.000000 512.000000"
 preserveAspectRatio="xMidYMid meet">

<g transform="translate(0.000000,512.000000) scale(0.100000,-0.100000)"
fill="#000000" stroke="none">
<path d="M3772 4303 c-18 -9 -45 -32 -60 -51 l-27 -35 -3 -269 -3 -268 -749
-2 c-738 -3 -749 -3 -776 -24 -15 -11 -37 -33 -48 -48 -20 -27 -21 -39 -21
-406 0 -367 1 -379 21 -406 11 -15 33 -37 48 -48 27 -21 38 -21 777 -24 l749
-2 0 -256 c0 -280 3 -300 59 -347 37 -30 85 -42 139 -32 33 5 98 68 554 523
455 456 518 521 523 555 17 92 36 69 -513 619 -278 279 -521 515 -538 523 -41
19 -90 19 -132 -2z"/>
<path d="M1215 3026 c-16 -8 -258 -243 -537 -522 -549 -552 -530 -529 -513
-621 6 -33 68 -100 518 -551 368 -368 521 -515 546 -523 73 -25 161 13 195 84
13 30 16 74 16 291 l0 256 749 2 c739 3 750 3 777 24 15 11 37 33 48 48 20 27
21 39 21 406 0 367 -1 379 -21 406 -11 15 -33 37 -48 48 -27 21 -38 21 -777
24 l-749 2 0 256 c0 285 -3 303 -67 351 -41 31 -114 40 -158 19z"/>
</g>
</svg>
