<?xml version="1.0" standalone="no"?>
<!DOCTYPE svg PUBLIC "-//W3C//DTD SVG 20010904//EN"
 "http://www.w3.org/TR/2001/REC-SVG-20010904/DTD/svg10.dtd">
<svg version="1.0" xmlns="http://www.w3.org/2000/svg"
 width="512.000000pt" height="512.000000pt" viewBox="0 0 512.000000 512.000000"
 preserveAspectRatio="xMidYMid meet">

<g transform="translate(0.000000,512.000000) scale(0.100000,-0.100000)"
fill="#000000" stroke="none">
<path d="M3593 4755 c-144 -40 -207 -88 -499 -379 -316 -316 -369 -392 -393
-567 -19 -138 12 -271 91 -391 55 -83 543 -571 626 -626 119 -78 247 -108 387
-91 176 22 253 75 571 393 347 348 389 416 389 636 0 230 -25 271 -395 640
-295 295 -341 332 -459 374 -74 26 -244 32 -318 11z"/>
<path d="M994 4630 c-148 -21 -238 -64 -339 -165 -79 -79 -126 -160 -152 -261
-16 -60 -18 -120 -18 -464 0 -444 3 -471 65 -596 75 -152 230 -270 396 -299
112 -20 766 -20 879 0 228 41 409 222 450 450 20 113 20 767 0 879 -30 167
-146 321 -299 396 -45 22 -103 45 -131 51 -61 14 -764 21 -851 9z"/>
<path d="M941 2275 c-205 -38 -380 -204 -438 -416 -16 -56 -18 -113 -18 -469
0 -450 4 -483 68 -604 41 -79 154 -192 233 -233 120 -64 155 -68 594 -68 444
0 471 3 596 65 153 75 269 229 299 396 20 112 20 766 0 879 -37 206 -187 374
-395 441 -48 15 -104 18 -460 20 -311 2 -422 0 -479 -11z"/>
<path d="M3291 2275 c-224 -41 -406 -224 -446 -450 -20 -113 -20 -767 0 -879
30 -167 146 -321 299 -396 125 -62 152 -65 596 -65 439 0 474 4 594 68 79 41
192 154 233 233 64 120 68 155 68 594 0 444 -3 471 -65 596 -75 153 -229 269
-396 299 -109 20 -775 19 -883 0z"/>
</g>
</svg>
