<?xml version="1.0" standalone="no"?>
<!DOCTYPE svg PUBLIC "-//W3C//DTD SVG 20010904//EN"
 "http://www.w3.org/TR/2001/REC-SVG-20010904/DTD/svg10.dtd">
<svg version="1.0" xmlns="http://www.w3.org/2000/svg"
 width="512.000000pt" height="512.000000pt" viewBox="0 0 512.000000 512.000000"
 preserveAspectRatio="xMidYMid meet">

<g transform="translate(0.000000,512.000000) scale(0.100000,-0.100000)"
fill="#000000" stroke="none">
<path d="M103 4660 c-102 -58 -132 -190 -66 -284 16 -23 49 -51 78 -65 48 -25
55 -26 287 -29 l238 -4 0 -99 0 -99 -227 0 c-128 0 -245 -5 -266 -11 -79 -22
-147 -111 -147 -194 0 -83 69 -173 150 -195 19 -6 137 -10 263 -10 l227 0 0
-99 0 -99 -242 -4 -243 -3 -48 -28 c-99 -59 -132 -161 -82 -262 21 -45 37 -61
78 -85 l52 -30 243 0 242 0 0 -105 0 -105 -237 0 c-267 0 -290 -5 -350 -73
-87 -99 -60 -241 57 -307 44 -24 50 -25 288 -28 l242 -4 0 -99 0 -99 -226 0
c-248 0 -282 -5 -340 -53 -115 -96 -89 -273 51 -338 35 -16 68 -19 278 -19
l237 0 0 -105 0 -105 -243 0 c-236 0 -245 -1 -288 -23 -24 -13 -57 -43 -74
-66 -25 -36 -30 -52 -30 -104 0 -78 26 -131 84 -172 l43 -30 254 -3 254 -3 0
-104 0 -105 -235 0 c-256 0 -281 -4 -339 -58 -104 -98 -80 -256 49 -325 39
-21 50 -22 420 -22 l380 0 47 28 c31 18 57 44 75 75 l28 47 0 1885 c0 1037 -3
1897 -8 1912 -11 40 -66 98 -112 119 -36 17 -74 19 -415 19 l-375 0 -52 -30z"/>
<path d="M1880 4668 c-62 -34 -102 -93 -108 -160 -3 -48 32 -165 382 -1247
l385 -1193 -101 -117 -102 -118 -55 18 c-194 60 -395 45 -578 -42 -331 -158
-497 -526 -389 -864 36 -114 89 -198 181 -290 155 -154 327 -225 550 -225 109
0 195 16 294 56 194 76 359 251 427 449 35 103 44 274 20 377 -17 73 -62 181
-95 227 -12 16 -21 32 -21 34 0 14 345 401 433 486 l97 94 97 -94 c87 -83 433
-472 433 -486 0 -2 -9 -18 -21 -34 -33 -46 -78 -154 -95 -227 -25 -104 -15
-273 21 -381 66 -194 227 -363 425 -444 97 -40 184 -57 295 -57 223 0 395 71
550 225 133 133 200 278 212 459 15 232 -95 470 -284 613 -202 154 -469 200
-714 124 l-55 -18 -102 118 -101 117 385 1193 c429 1329 410 1254 348 1341
-71 101 -233 119 -322 36 -12 -12 -257 -399 -544 -860 -286 -461 -525 -837
-530 -836 -5 2 -244 381 -531 843 -587 944 -552 896 -675 903 -56 3 -74 0
-112 -20z m316 -3228 c155 -76 224 -263 151 -412 -36 -74 -108 -139 -183 -167
-125 -48 -285 -13 -369 80 -78 87 -106 211 -70 318 30 92 135 185 239 212 61
16 165 2 232 -31z m2270 19 c57 -18 77 -31 129 -82 78 -78 100 -135 93 -241
-11 -173 -148 -296 -328 -296 -134 0 -249 71 -307 188 -67 138 -10 320 125
399 94 55 182 65 288 32z"/>
</g>
</svg>
