<?xml version="1.0" standalone="no"?>
<!DOCTYPE svg PUBLIC "-//W3C//DTD SVG 20010904//EN"
 "http://www.w3.org/TR/2001/REC-SVG-20010904/DTD/svg10.dtd">
<svg version="1.0" xmlns="http://www.w3.org/2000/svg"
 width="512.000000pt" height="512.000000pt" viewBox="0 0 512.000000 512.000000"
 preserveAspectRatio="xMidYMid meet">

<g transform="translate(0.000000,512.000000) scale(0.100000,-0.100000)"
fill="#000000" stroke="none">
<path d="M1491 4784 c-71 -19 -161 -68 -200 -108 l-32 -33 143 -6 c163 -6 271
-25 402 -69 481 -161 835 -583 911 -1088 109 -716 -375 -1397 -1092 -1536 -95
-19 -334 -25 -435 -11 l-58 7 0 -592 c0 -643 2 -663 56 -770 34 -67 135 -168
202 -202 114 -58 60 -56 1507 -56 1463 0 1385 -3 1505 61 100 53 182 148 224
257 l21 57 3 1333 2 1332 -498 0 c-292 0 -522 4 -553 10 -122 23 -252 115
-319 226 -67 111 -69 130 -69 697 l-1 507 -832 -1 c-694 0 -842 -3 -887 -15z
m2447 -2411 c15 -11 37 -35 50 -53 l22 -33 0 -607 0 -607 -22 -33 c-34 -50
-71 -72 -125 -77 -65 -5 -120 26 -150 87 l-23 44 0 586 c0 549 2 588 19 626
17 37 53 71 91 87 29 12 111 0 138 -20z m-1280 -480 c14 -10 35 -32 46 -47 20
-27 21 -39 21 -406 0 -367 -1 -379 -21 -406 -38 -52 -71 -69 -132 -69 -70 0
-115 28 -143 89 -17 37 -19 71 -19 386 0 315 2 349 19 386 17 37 53 71 91 87
28 12 111 0 138 -20z m640 -160 c14 -10 35 -32 46 -47 20 -26 21 -40 21 -326
0 -286 -1 -300 -21 -326 -38 -52 -71 -69 -132 -69 -70 0 -115 28 -143 89 -17
37 -19 69 -19 306 0 237 2 269 19 306 17 37 53 71 91 87 28 12 111 0 138 -20z
m-1280 -320 c62 -46 67 -62 67 -213 0 -151 -5 -167 -69 -214 -43 -32 -132 -29
-178 6 -56 43 -68 79 -68 207 0 92 4 119 20 151 18 35 54 68 90 83 28 12 111
0 138 -20z"/>
<path d="M3530 4307 c0 -458 2 -495 19 -533 10 -23 34 -52 52 -65 l34 -24 498
-3 c398 -2 497 0 497 10 0 28 -60 136 -101 183 -24 27 -198 220 -387 427 -387
426 -415 450 -552 482 l-60 14 0 -491z"/>
<path d="M1161 4298 c-104 -18 -280 -92 -381 -161 -25 -17 -85 -69 -133 -116
-325 -313 -409 -800 -207 -1201 72 -144 190 -284 319 -379 408 -301 984 -256
1345 104 150 151 238 315 290 547 l6 27 -477 3 -478 3 -52 27 c-70 37 -120 89
-152 157 l-26 56 -5 470 -5 471 -44 -8z"/>
<path d="M1530 3875 l0 -435 435 0 435 0 -6 28 c-71 322 -231 548 -502 711
-73 44 -247 110 -329 125 l-33 6 0 -435z"/>
</g>
</svg>
