<?xml version="1.0" standalone="no"?>
<!DOCTYPE svg PUBLIC "-//W3C//DTD SVG 20010904//EN"
 "http://www.w3.org/TR/2001/REC-SVG-20010904/DTD/svg10.dtd">
<svg version="1.0" xmlns="http://www.w3.org/2000/svg"
 width="512.000000pt" height="512.000000pt" viewBox="0 0 512.000000 512.000000"
 preserveAspectRatio="xMidYMid meet">

<g transform="translate(0.000000,512.000000) scale(0.100000,-0.100000)"
fill="#000000" stroke="none">
<path d="M855 4100 c-212 -44 -373 -215 -406 -430 -39 -255 143 -516 399 -569
365 -76 690 264 597 624 -68 260 -332 428 -590 375z"/>
<path d="M4046 4094 c-222 -54 -386 -263 -386 -494 0 -320 301 -565 612 -499
172 37 321 169 378 335 47 135 30 302 -43 422 -114 191 -346 288 -561 236z"/>
<path d="M2441 4000 c-90 -19 -173 -53 -243 -99 -289 -189 -387 -550 -235
-861 33 -68 58 -102 127 -170 91 -91 157 -132 275 -172 58 -19 91 -23 195 -23
104 0 137 4 195 23 118 40 184 81 276 172 71 70 94 101 127 170 96 201 96 399
0 599 -74 154 -231 288 -403 341 -79 25 -243 35 -314 20z"/>
<path d="M595 2994 c-222 -54 -413 -234 -486 -459 -21 -64 -23 -93 -27 -329
-4 -277 -2 -294 45 -315 17 -8 194 -11 583 -11 l558 0 22 68 c72 219 227 416
433 550 77 49 76 44 24 147 -85 171 -243 297 -435 346 -66 17 -110 19 -366 18
-217 0 -306 -4 -351 -15z"/>
<path d="M3802 2990 c-181 -48 -340 -174 -426 -340 -55 -107 -57 -100 31 -157
105 -69 190 -148 264 -246 66 -87 140 -228 165 -314 l15 -53 559 0 c389 0 566
3 583 11 47 21 49 38 45 315 -5 289 -12 331 -85 464 -50 90 -177 214 -270 263
-132 69 -186 77 -517 76 -253 0 -300 -3 -364 -19z"/>
<path d="M2121 2489 c-339 -66 -610 -323 -702 -664 -20 -73 -23 -111 -27 -417
l-4 -338 30 -30 30 -30 1106 0 c789 0 1112 3 1129 11 14 6 30 22 36 36 14 32
15 564 0 670 -27 199 -111 365 -259 513 -100 100 -159 141 -287 195 -140 60
-187 65 -620 64 -213 -1 -408 -5 -432 -10z"/>
</g>
</svg>
